<mxfile host="app.diagrams.net" modified="2022-11-09T11:41:16.864Z" agent="5.0 (Windows NT 10.0; Win64; x64) AppleWebKit/537.36 (KHTML, like Gecko) Chrome/106.0.0.0 Safari/537.36" etag="egOIxEQ5d1jCe9lfFGy1" version="20.5.3" type="github">
  <diagram id="Fr35bSytsKvxiw6B7-Ny" name="Page-1">
    <mxGraphModel dx="2889" dy="1090" grid="1" gridSize="10" guides="1" tooltips="1" connect="1" arrows="1" fold="1" page="1" pageScale="1" pageWidth="827" pageHeight="1169" math="0" shadow="0">
      <root>
        <mxCell id="0" />
        <mxCell id="1" parent="0" />
        <mxCell id="59evTQR5an8I3m5xiGdk-8" value="RFG — Return Flow Guard" style="swimlane;childLayout=stackLayout;horizontal=1;startSize=60;horizontalStack=0;rounded=1;fontSize=37;fontStyle=0;strokeWidth=2;resizeParent=0;resizeLast=1;shadow=1;dashed=0;align=center;fillColor=#E6E6E6;strokeColor=none;glass=0;sketch=0;swimlaneLine=0;" vertex="1" parent="1">
          <mxGeometry x="-19" y="70" width="999" height="60" as="geometry">
            <mxRectangle x="-19" y="70" width="490" height="60" as="alternateBounds" />
          </mxGeometry>
        </mxCell>
        <mxCell id="59evTQR5an8I3m5xiGdk-35" value="" style="verticalLabelPosition=bottom;verticalAlign=top;html=1;shape=mxgraph.basic.rect;fillColor2=none;strokeWidth=1;size=20;indent=5;shadow=1;glass=0;sketch=0;strokeColor=#E6E6E6;fontSize=37;fillColor=#E6E6E6;" vertex="1" parent="1">
          <mxGeometry x="-19" y="130" width="999" height="690" as="geometry" />
        </mxCell>
        <mxCell id="59evTQR5an8I3m5xiGdk-37" value="&lt;font style=&quot;font-size: 23px;&quot;&gt;RFG是一个我们可兼容、ABI可兼容的软件性能影子栈&lt;/font&gt;" style="whiteSpace=wrap;html=1;shadow=1;glass=0;sketch=0;strokeColor=#006EAF;fontSize=37;fillColor=#1ba1e2;fontColor=#ffffff;" vertex="1" parent="1">
          <mxGeometry x="-10" y="140" width="980" height="50" as="geometry" />
        </mxCell>
        <mxCell id="59evTQR5an8I3m5xiGdk-39" value="" style="verticalLabelPosition=bottom;verticalAlign=top;html=1;shape=mxgraph.basic.rect;fillColor2=none;strokeWidth=1;size=20;indent=5;shadow=1;glass=0;sketch=0;strokeColor=default;fontSize=37;fillColor=#808080;" vertex="1" parent="1">
          <mxGeometry x="-10" y="200" width="270" height="60" as="geometry" />
        </mxCell>
        <mxCell id="59evTQR5an8I3m5xiGdk-40" value="" style="verticalLabelPosition=bottom;verticalAlign=top;html=1;shape=mxgraph.basic.rect;fillColor2=none;strokeWidth=1;size=20;indent=5;shadow=1;glass=0;sketch=0;strokeColor=default;fontSize=37;fillColor=#808080;" vertex="1" parent="1">
          <mxGeometry x="270" y="200" width="300" height="60" as="geometry" />
        </mxCell>
        <mxCell id="59evTQR5an8I3m5xiGdk-41" value="" style="shape=table;startSize=0;container=1;collapsible=0;childLayout=tableLayout;shadow=1;glass=0;sketch=0;strokeColor=default;fontSize=22;" vertex="1" parent="1">
          <mxGeometry x="610" y="220" width="330" height="460" as="geometry" />
        </mxCell>
        <mxCell id="59evTQR5an8I3m5xiGdk-42" value="" style="shape=tableRow;horizontal=0;startSize=0;swimlaneHead=0;swimlaneBody=0;top=0;left=0;bottom=0;right=0;collapsible=0;dropTarget=0;fillColor=none;points=[[0,0.5],[1,0.5]];portConstraint=eastwest;shadow=1;glass=0;sketch=0;strokeColor=default;fontSize=37;" vertex="1" parent="59evTQR5an8I3m5xiGdk-41">
          <mxGeometry width="330" height="41" as="geometry" />
        </mxCell>
        <mxCell id="59evTQR5an8I3m5xiGdk-43" value="" style="shape=partialRectangle;html=1;whiteSpace=wrap;connectable=0;overflow=hidden;fillColor=none;top=0;left=0;bottom=0;right=0;pointerEvents=1;shadow=1;glass=0;sketch=0;strokeColor=default;fontSize=37;" vertex="1" parent="59evTQR5an8I3m5xiGdk-42">
          <mxGeometry width="165" height="41" as="geometry">
            <mxRectangle width="165" height="41" as="alternateBounds" />
          </mxGeometry>
        </mxCell>
        <mxCell id="59evTQR5an8I3m5xiGdk-44" value="" style="shape=partialRectangle;html=1;whiteSpace=wrap;connectable=0;overflow=hidden;fillColor=none;top=0;left=0;bottom=0;right=0;pointerEvents=1;shadow=1;glass=0;sketch=0;strokeColor=default;fontSize=37;" vertex="1" parent="59evTQR5an8I3m5xiGdk-42">
          <mxGeometry x="165" width="165" height="41" as="geometry">
            <mxRectangle width="165" height="41" as="alternateBounds" />
          </mxGeometry>
        </mxCell>
        <mxCell id="59evTQR5an8I3m5xiGdk-45" value="" style="shape=tableRow;horizontal=0;startSize=0;swimlaneHead=0;swimlaneBody=0;top=0;left=0;bottom=0;right=0;collapsible=0;dropTarget=0;fillColor=none;points=[[0,0.5],[1,0.5]];portConstraint=eastwest;shadow=1;glass=0;sketch=0;strokeColor=default;fontSize=37;" vertex="1" parent="59evTQR5an8I3m5xiGdk-41">
          <mxGeometry y="41" width="330" height="41" as="geometry" />
        </mxCell>
        <mxCell id="59evTQR5an8I3m5xiGdk-46" value="" style="shape=partialRectangle;html=1;whiteSpace=wrap;connectable=0;overflow=hidden;fillColor=none;top=0;left=0;bottom=0;right=0;pointerEvents=1;shadow=1;glass=0;sketch=0;strokeColor=default;fontSize=37;" vertex="1" parent="59evTQR5an8I3m5xiGdk-45">
          <mxGeometry width="165" height="41" as="geometry">
            <mxRectangle width="165" height="41" as="alternateBounds" />
          </mxGeometry>
        </mxCell>
        <mxCell id="59evTQR5an8I3m5xiGdk-47" value="" style="shape=partialRectangle;html=1;whiteSpace=wrap;connectable=0;overflow=hidden;fillColor=none;top=0;left=0;bottom=0;right=0;pointerEvents=1;shadow=1;glass=0;sketch=0;strokeColor=default;fontSize=37;" vertex="1" parent="59evTQR5an8I3m5xiGdk-45">
          <mxGeometry x="165" width="165" height="41" as="geometry">
            <mxRectangle width="165" height="41" as="alternateBounds" />
          </mxGeometry>
        </mxCell>
        <mxCell id="59evTQR5an8I3m5xiGdk-48" value="" style="shape=tableRow;horizontal=0;startSize=0;swimlaneHead=0;swimlaneBody=0;top=0;left=0;bottom=0;right=0;collapsible=0;dropTarget=0;fillColor=none;points=[[0,0.5],[1,0.5]];portConstraint=eastwest;shadow=1;glass=0;sketch=0;strokeColor=default;fontSize=37;" vertex="1" parent="59evTQR5an8I3m5xiGdk-41">
          <mxGeometry y="82" width="330" height="41" as="geometry" />
        </mxCell>
        <mxCell id="59evTQR5an8I3m5xiGdk-49" value="" style="shape=partialRectangle;html=1;whiteSpace=wrap;connectable=0;overflow=hidden;fillColor=none;top=0;left=0;bottom=0;right=0;pointerEvents=1;shadow=1;glass=0;sketch=0;strokeColor=default;fontSize=37;" vertex="1" parent="59evTQR5an8I3m5xiGdk-48">
          <mxGeometry width="165" height="41" as="geometry">
            <mxRectangle width="165" height="41" as="alternateBounds" />
          </mxGeometry>
        </mxCell>
        <mxCell id="59evTQR5an8I3m5xiGdk-50" value="" style="shape=partialRectangle;html=1;whiteSpace=wrap;connectable=0;overflow=hidden;fillColor=none;top=0;left=0;bottom=0;right=0;pointerEvents=1;shadow=1;glass=0;sketch=0;strokeColor=default;fontSize=37;" vertex="1" parent="59evTQR5an8I3m5xiGdk-48">
          <mxGeometry x="165" width="165" height="41" as="geometry">
            <mxRectangle width="165" height="41" as="alternateBounds" />
          </mxGeometry>
        </mxCell>
        <mxCell id="59evTQR5an8I3m5xiGdk-51" value="" style="shape=tableRow;horizontal=0;startSize=0;swimlaneHead=0;swimlaneBody=0;top=0;left=0;bottom=0;right=0;collapsible=0;dropTarget=0;fillColor=none;points=[[0,0.5],[1,0.5]];portConstraint=eastwest;shadow=1;glass=0;sketch=0;strokeColor=default;fontSize=37;" vertex="1" parent="59evTQR5an8I3m5xiGdk-41">
          <mxGeometry y="123" width="330" height="41" as="geometry" />
        </mxCell>
        <mxCell id="59evTQR5an8I3m5xiGdk-52" value="" style="shape=partialRectangle;html=1;whiteSpace=wrap;connectable=0;overflow=hidden;fillColor=none;top=0;left=0;bottom=0;right=0;pointerEvents=1;shadow=1;glass=0;sketch=0;strokeColor=default;fontSize=37;" vertex="1" parent="59evTQR5an8I3m5xiGdk-51">
          <mxGeometry width="165" height="41" as="geometry">
            <mxRectangle width="165" height="41" as="alternateBounds" />
          </mxGeometry>
        </mxCell>
        <mxCell id="59evTQR5an8I3m5xiGdk-53" value="" style="shape=partialRectangle;html=1;whiteSpace=wrap;connectable=0;overflow=hidden;fillColor=none;top=0;left=0;bottom=0;right=0;pointerEvents=1;shadow=1;glass=0;sketch=0;strokeColor=default;fontSize=37;" vertex="1" parent="59evTQR5an8I3m5xiGdk-51">
          <mxGeometry x="165" width="165" height="41" as="geometry">
            <mxRectangle width="165" height="41" as="alternateBounds" />
          </mxGeometry>
        </mxCell>
        <mxCell id="59evTQR5an8I3m5xiGdk-54" value="" style="shape=tableRow;horizontal=0;startSize=0;swimlaneHead=0;swimlaneBody=0;top=0;left=0;bottom=0;right=0;collapsible=0;dropTarget=0;fillColor=none;points=[[0,0.5],[1,0.5]];portConstraint=eastwest;shadow=1;glass=0;sketch=0;strokeColor=default;fontSize=37;" vertex="1" parent="59evTQR5an8I3m5xiGdk-41">
          <mxGeometry y="164" width="330" height="41" as="geometry" />
        </mxCell>
        <mxCell id="59evTQR5an8I3m5xiGdk-55" value="" style="shape=partialRectangle;html=1;whiteSpace=wrap;connectable=0;overflow=hidden;fillColor=none;top=0;left=0;bottom=0;right=0;pointerEvents=1;shadow=1;glass=0;sketch=0;strokeColor=default;fontSize=37;" vertex="1" parent="59evTQR5an8I3m5xiGdk-54">
          <mxGeometry width="165" height="41" as="geometry">
            <mxRectangle width="165" height="41" as="alternateBounds" />
          </mxGeometry>
        </mxCell>
        <mxCell id="59evTQR5an8I3m5xiGdk-56" value="" style="shape=partialRectangle;html=1;whiteSpace=wrap;connectable=0;overflow=hidden;fillColor=none;top=0;left=0;bottom=0;right=0;pointerEvents=1;shadow=1;glass=0;sketch=0;strokeColor=default;fontSize=37;" vertex="1" parent="59evTQR5an8I3m5xiGdk-54">
          <mxGeometry x="165" width="165" height="41" as="geometry">
            <mxRectangle width="165" height="41" as="alternateBounds" />
          </mxGeometry>
        </mxCell>
        <mxCell id="59evTQR5an8I3m5xiGdk-57" value="" style="shape=tableRow;horizontal=0;startSize=0;swimlaneHead=0;swimlaneBody=0;top=0;left=0;bottom=0;right=0;collapsible=0;dropTarget=0;fillColor=none;points=[[0,0.5],[1,0.5]];portConstraint=eastwest;shadow=1;glass=0;sketch=0;strokeColor=default;fontSize=37;" vertex="1" parent="59evTQR5an8I3m5xiGdk-41">
          <mxGeometry y="205" width="330" height="40" as="geometry" />
        </mxCell>
        <mxCell id="59evTQR5an8I3m5xiGdk-58" value="" style="shape=partialRectangle;html=1;whiteSpace=wrap;connectable=0;overflow=hidden;fillColor=none;top=0;left=0;bottom=0;right=0;pointerEvents=1;shadow=1;glass=0;sketch=0;strokeColor=default;fontSize=37;" vertex="1" parent="59evTQR5an8I3m5xiGdk-57">
          <mxGeometry width="165" height="40" as="geometry">
            <mxRectangle width="165" height="40" as="alternateBounds" />
          </mxGeometry>
        </mxCell>
        <mxCell id="59evTQR5an8I3m5xiGdk-59" value="" style="shape=partialRectangle;html=1;whiteSpace=wrap;connectable=0;overflow=hidden;fillColor=none;top=0;left=0;bottom=0;right=0;pointerEvents=1;shadow=1;glass=0;sketch=0;strokeColor=default;fontSize=37;" vertex="1" parent="59evTQR5an8I3m5xiGdk-57">
          <mxGeometry x="165" width="165" height="40" as="geometry">
            <mxRectangle width="165" height="40" as="alternateBounds" />
          </mxGeometry>
        </mxCell>
        <mxCell id="59evTQR5an8I3m5xiGdk-60" value="" style="shape=tableRow;horizontal=0;startSize=0;swimlaneHead=0;swimlaneBody=0;top=0;left=0;bottom=0;right=0;collapsible=0;dropTarget=0;fillColor=none;points=[[0,0.5],[1,0.5]];portConstraint=eastwest;shadow=1;glass=0;sketch=0;strokeColor=default;fontSize=37;" vertex="1" parent="59evTQR5an8I3m5xiGdk-41">
          <mxGeometry y="245" width="330" height="41" as="geometry" />
        </mxCell>
        <mxCell id="59evTQR5an8I3m5xiGdk-61" value="" style="shape=partialRectangle;html=1;whiteSpace=wrap;connectable=0;overflow=hidden;fillColor=none;top=0;left=0;bottom=0;right=0;pointerEvents=1;shadow=1;glass=0;sketch=0;strokeColor=default;fontSize=37;" vertex="1" parent="59evTQR5an8I3m5xiGdk-60">
          <mxGeometry width="165" height="41" as="geometry">
            <mxRectangle width="165" height="41" as="alternateBounds" />
          </mxGeometry>
        </mxCell>
        <mxCell id="59evTQR5an8I3m5xiGdk-62" value="" style="shape=partialRectangle;html=1;whiteSpace=wrap;connectable=0;overflow=hidden;fillColor=none;top=0;left=0;bottom=0;right=0;pointerEvents=1;shadow=1;glass=0;sketch=0;strokeColor=default;fontSize=37;" vertex="1" parent="59evTQR5an8I3m5xiGdk-60">
          <mxGeometry x="165" width="165" height="41" as="geometry">
            <mxRectangle width="165" height="41" as="alternateBounds" />
          </mxGeometry>
        </mxCell>
        <mxCell id="59evTQR5an8I3m5xiGdk-63" value="" style="shape=tableRow;horizontal=0;startSize=0;swimlaneHead=0;swimlaneBody=0;top=0;left=0;bottom=0;right=0;collapsible=0;dropTarget=0;fillColor=none;points=[[0,0.5],[1,0.5]];portConstraint=eastwest;shadow=1;glass=0;sketch=0;strokeColor=default;fontSize=37;" vertex="1" parent="59evTQR5an8I3m5xiGdk-41">
          <mxGeometry y="286" width="330" height="41" as="geometry" />
        </mxCell>
        <mxCell id="59evTQR5an8I3m5xiGdk-64" value="" style="shape=partialRectangle;html=1;whiteSpace=wrap;connectable=0;overflow=hidden;fillColor=none;top=0;left=0;bottom=0;right=0;pointerEvents=1;shadow=1;glass=0;sketch=0;strokeColor=default;fontSize=37;" vertex="1" parent="59evTQR5an8I3m5xiGdk-63">
          <mxGeometry width="165" height="41" as="geometry">
            <mxRectangle width="165" height="41" as="alternateBounds" />
          </mxGeometry>
        </mxCell>
        <mxCell id="59evTQR5an8I3m5xiGdk-65" value="" style="shape=partialRectangle;html=1;whiteSpace=wrap;connectable=0;overflow=hidden;fillColor=none;top=0;left=0;bottom=0;right=0;pointerEvents=1;shadow=1;glass=0;sketch=0;strokeColor=default;fontSize=37;" vertex="1" parent="59evTQR5an8I3m5xiGdk-63">
          <mxGeometry x="165" width="165" height="41" as="geometry">
            <mxRectangle width="165" height="41" as="alternateBounds" />
          </mxGeometry>
        </mxCell>
        <mxCell id="59evTQR5an8I3m5xiGdk-66" value="" style="shape=tableRow;horizontal=0;startSize=0;swimlaneHead=0;swimlaneBody=0;top=0;left=0;bottom=0;right=0;collapsible=0;dropTarget=0;fillColor=none;points=[[0,0.5],[1,0.5]];portConstraint=eastwest;shadow=1;glass=0;sketch=0;strokeColor=default;fontSize=37;" vertex="1" parent="59evTQR5an8I3m5xiGdk-41">
          <mxGeometry y="327" width="330" height="41" as="geometry" />
        </mxCell>
        <mxCell id="59evTQR5an8I3m5xiGdk-67" value="" style="shape=partialRectangle;html=1;whiteSpace=wrap;connectable=0;overflow=hidden;fillColor=none;top=0;left=0;bottom=0;right=0;pointerEvents=1;shadow=1;glass=0;sketch=0;strokeColor=default;fontSize=37;" vertex="1" parent="59evTQR5an8I3m5xiGdk-66">
          <mxGeometry width="165" height="41" as="geometry">
            <mxRectangle width="165" height="41" as="alternateBounds" />
          </mxGeometry>
        </mxCell>
        <mxCell id="59evTQR5an8I3m5xiGdk-68" value="" style="shape=partialRectangle;html=1;whiteSpace=wrap;connectable=0;overflow=hidden;fillColor=none;top=0;left=0;bottom=0;right=0;pointerEvents=1;shadow=1;glass=0;sketch=0;strokeColor=default;fontSize=37;" vertex="1" parent="59evTQR5an8I3m5xiGdk-66">
          <mxGeometry x="165" width="165" height="41" as="geometry">
            <mxRectangle width="165" height="41" as="alternateBounds" />
          </mxGeometry>
        </mxCell>
        <mxCell id="59evTQR5an8I3m5xiGdk-69" value="" style="shape=tableRow;horizontal=0;startSize=0;swimlaneHead=0;swimlaneBody=0;top=0;left=0;bottom=0;right=0;collapsible=0;dropTarget=0;fillColor=none;points=[[0,0.5],[1,0.5]];portConstraint=eastwest;shadow=1;glass=0;sketch=0;strokeColor=default;fontSize=37;" vertex="1" parent="59evTQR5an8I3m5xiGdk-41">
          <mxGeometry y="368" width="330" height="41" as="geometry" />
        </mxCell>
        <mxCell id="59evTQR5an8I3m5xiGdk-70" value="" style="shape=partialRectangle;html=1;whiteSpace=wrap;connectable=0;overflow=hidden;fillColor=none;top=0;left=0;bottom=0;right=0;pointerEvents=1;shadow=1;glass=0;sketch=0;strokeColor=default;fontSize=37;" vertex="1" parent="59evTQR5an8I3m5xiGdk-69">
          <mxGeometry width="165" height="41" as="geometry">
            <mxRectangle width="165" height="41" as="alternateBounds" />
          </mxGeometry>
        </mxCell>
        <mxCell id="59evTQR5an8I3m5xiGdk-71" value="" style="shape=partialRectangle;html=1;whiteSpace=wrap;connectable=0;overflow=hidden;fillColor=none;top=0;left=0;bottom=0;right=0;pointerEvents=1;shadow=1;glass=0;sketch=0;strokeColor=default;fontSize=37;" vertex="1" parent="59evTQR5an8I3m5xiGdk-69">
          <mxGeometry x="165" width="165" height="41" as="geometry">
            <mxRectangle width="165" height="41" as="alternateBounds" />
          </mxGeometry>
        </mxCell>
        <mxCell id="59evTQR5an8I3m5xiGdk-72" value="" style="shape=tableRow;horizontal=0;startSize=0;swimlaneHead=0;swimlaneBody=0;top=0;left=0;bottom=0;right=0;collapsible=0;dropTarget=0;fillColor=none;points=[[0,0.5],[1,0.5]];portConstraint=eastwest;shadow=1;glass=0;sketch=0;strokeColor=default;fontSize=37;" vertex="1" parent="59evTQR5an8I3m5xiGdk-41">
          <mxGeometry y="409" width="330" height="51" as="geometry" />
        </mxCell>
        <mxCell id="59evTQR5an8I3m5xiGdk-73" value="" style="shape=partialRectangle;html=1;whiteSpace=wrap;connectable=0;overflow=hidden;fillColor=none;top=0;left=0;bottom=0;right=0;pointerEvents=1;shadow=1;glass=0;sketch=0;strokeColor=default;fontSize=37;" vertex="1" parent="59evTQR5an8I3m5xiGdk-72">
          <mxGeometry width="165" height="51" as="geometry">
            <mxRectangle width="165" height="51" as="alternateBounds" />
          </mxGeometry>
        </mxCell>
        <mxCell id="59evTQR5an8I3m5xiGdk-74" value="" style="shape=partialRectangle;html=1;whiteSpace=wrap;connectable=0;overflow=hidden;fillColor=none;top=0;left=0;bottom=0;right=0;pointerEvents=1;shadow=1;glass=0;sketch=0;strokeColor=default;fontSize=37;" vertex="1" parent="59evTQR5an8I3m5xiGdk-72">
          <mxGeometry x="165" width="165" height="51" as="geometry">
            <mxRectangle width="165" height="51" as="alternateBounds" />
          </mxGeometry>
        </mxCell>
        <mxCell id="59evTQR5an8I3m5xiGdk-75" value="编译" style="whiteSpace=wrap;html=1;shadow=1;glass=0;sketch=0;strokeColor=none;fontSize=28;fillColor=none;" vertex="1" parent="1">
          <mxGeometry x="60" y="200" width="120" height="60" as="geometry" />
        </mxCell>
        <mxCell id="59evTQR5an8I3m5xiGdk-76" value="运行" style="whiteSpace=wrap;html=1;shadow=1;glass=0;sketch=0;strokeColor=none;fontSize=28;fillColor=none;" vertex="1" parent="1">
          <mxGeometry x="350" y="200" width="120" height="60" as="geometry" />
        </mxCell>
        <mxCell id="59evTQR5an8I3m5xiGdk-77" value="" style="html=1;dashed=0;whitespace=wrap;shadow=1;glass=0;labelBackgroundColor=none;sketch=0;strokeColor=#6c8ebf;fontSize=36;fillColor=#dae8fc;" vertex="1" parent="1">
          <mxGeometry y="270" width="250" height="210" as="geometry" />
        </mxCell>
        <mxCell id="59evTQR5an8I3m5xiGdk-84" value="" style="strokeWidth=2;html=1;shape=mxgraph.flowchart.delay;whiteSpace=wrap;shadow=1;glass=0;labelBackgroundColor=none;sketch=0;strokeColor=#6c8ebf;fontSize=36;fillColor=#dae8fc;" vertex="1" parent="1">
          <mxGeometry x="344.5" y="273.5" width="240" height="121" as="geometry" />
        </mxCell>
        <mxCell id="59evTQR5an8I3m5xiGdk-85" value="&lt;font style=&quot;font-size: 21px;&quot;&gt;进程开始&lt;/font&gt;" style="shape=ext;double=1;rounded=1;whiteSpace=wrap;html=1;shadow=1;glass=0;labelBackgroundColor=none;sketch=0;strokeColor=#6c8ebf;fontSize=36;fillColor=#dae8fc;" vertex="1" parent="1">
          <mxGeometry x="270" y="269" width="100" height="130" as="geometry" />
        </mxCell>
        <mxCell id="59evTQR5an8I3m5xiGdk-86" value="" style="strokeWidth=2;html=1;shape=mxgraph.flowchart.delay;whiteSpace=wrap;shadow=1;glass=0;labelBackgroundColor=none;sketch=0;strokeColor=#6c8ebf;fontSize=36;fillColor=#dae8fc;" vertex="1" parent="1">
          <mxGeometry x="354.5" y="415.5" width="230" height="119" as="geometry" />
        </mxCell>
        <mxCell id="59evTQR5an8I3m5xiGdk-87" value="&lt;font style=&quot;font-size: 21px;&quot;&gt;映像载入&lt;/font&gt;" style="shape=ext;double=1;rounded=1;whiteSpace=wrap;html=1;shadow=1;glass=0;labelBackgroundColor=none;sketch=0;strokeColor=#6c8ebf;fontSize=36;fillColor=#dae8fc;" vertex="1" parent="1">
          <mxGeometry x="270" y="409" width="100" height="130" as="geometry" />
        </mxCell>
        <mxCell id="59evTQR5an8I3m5xiGdk-90" value="" style="strokeWidth=2;html=1;shape=mxgraph.flowchart.delay;whiteSpace=wrap;shadow=1;glass=0;labelBackgroundColor=none;sketch=0;strokeColor=#6c8ebf;fontSize=36;fillColor=#dae8fc;" vertex="1" parent="1">
          <mxGeometry x="353.5" y="554" width="231" height="120" as="geometry" />
        </mxCell>
        <mxCell id="59evTQR5an8I3m5xiGdk-91" value="&lt;font style=&quot;font-size: 21px;&quot;&gt;函数调用&lt;/font&gt;" style="shape=ext;double=1;rounded=1;whiteSpace=wrap;html=1;shadow=1;glass=0;labelBackgroundColor=none;sketch=0;strokeColor=#6c8ebf;fontSize=36;fillColor=#dae8fc;" vertex="1" parent="1">
          <mxGeometry x="270" y="549" width="100" height="130" as="geometry" />
        </mxCell>
        <mxCell id="59evTQR5an8I3m5xiGdk-92" value="&lt;font style=&quot;font-size: 17px;&quot;&gt;NOP被加入到所有函数开头和结尾的p&lt;span style=&quot;font-family: -apple-system, &amp;quot;SF UI Text&amp;quot;, Arial, &amp;quot;PingFang SC&amp;quot;, &amp;quot;Hiragino Sans GB&amp;quot;, &amp;quot;Microsoft YaHei&amp;quot;, &amp;quot;WenQuanYi Micro Hei&amp;quot;, sans-serif, SimHei, SimSun; text-align: start;&quot;&gt;rolog&amp;amp;epilog代码中&lt;/span&gt;&lt;/font&gt;" style="whiteSpace=wrap;html=1;shadow=1;glass=0;labelBackgroundColor=none;sketch=0;strokeColor=none;fontSize=24;fillColor=none;" vertex="1" parent="1">
          <mxGeometry x="10" y="304" width="230" height="36" as="geometry" />
        </mxCell>
        <mxCell id="59evTQR5an8I3m5xiGdk-93" value="&lt;p style=&quot;line-height: 120%;&quot;&gt;&lt;font style=&quot;font-size: 17px;&quot; face=&quot;-apple-system, SF UI Text, Arial, PingFang SC, Hiragino Sans GB, Microsoft YaHei, WenQuanYi Micro Hei, sans-serif, SimHei, SimSun&quot;&gt;元数据（Metadata)添加到影像中来定位prolog和epilog中NOP字节数&lt;/font&gt;&lt;/p&gt;" style="text;whiteSpace=wrap;html=1;fontSize=17;fontColor=#000000;" vertex="1" parent="1">
          <mxGeometry x="10" y="360" width="230" height="80" as="geometry" />
        </mxCell>
        <mxCell id="59evTQR5an8I3m5xiGdk-95" value="" style="shape=waypoint;sketch=0;fillStyle=solid;size=6;pointerEvents=1;points=[];fillColor=none;resizable=0;rotatable=0;perimeter=centerPerimeter;snapToPoint=1;shadow=0;glass=0;labelBackgroundColor=none;strokeColor=#000000;fontSize=21;fontColor=#000000;" vertex="1" parent="1">
          <mxGeometry x="360" y="271" width="40" height="40" as="geometry" />
        </mxCell>
        <mxCell id="59evTQR5an8I3m5xiGdk-97" value="&lt;p style=&quot;line-height: 120%; font-size: 15px;&quot;&gt;&lt;font style=&quot;font-size: 15px;&quot; face=&quot;-apple-system, SF UI Text, Arial, PingFang SC, Hiragino Sans GB, Microsoft YaHei, WenQuanYi Micro Hei, sans-serif, SimHei, SimSun&quot;&gt;创建1TB阴影堆栈区域&lt;/font&gt;&lt;/p&gt;" style="text;whiteSpace=wrap;html=1;fontSize=15;fontColor=#000000;" vertex="1" parent="1">
          <mxGeometry x="387" y="261" width="155" height="60" as="geometry" />
        </mxCell>
        <mxCell id="59evTQR5an8I3m5xiGdk-98" value="" style="shape=waypoint;sketch=0;fillStyle=solid;size=6;pointerEvents=1;points=[];fillColor=none;resizable=0;rotatable=0;perimeter=centerPerimeter;snapToPoint=1;shadow=0;glass=0;labelBackgroundColor=none;strokeColor=#000000;fontSize=21;fontColor=#000000;" vertex="1" parent="1">
          <mxGeometry x="360" y="294" width="40" height="40" as="geometry" />
        </mxCell>
        <mxCell id="59evTQR5an8I3m5xiGdk-99" value="" style="shape=waypoint;sketch=0;fillStyle=solid;size=6;pointerEvents=1;points=[];fillColor=none;resizable=0;rotatable=0;perimeter=centerPerimeter;snapToPoint=1;shadow=0;glass=0;labelBackgroundColor=none;strokeColor=#000000;fontSize=21;fontColor=#000000;" vertex="1" parent="1">
          <mxGeometry x="360" y="316" width="40" height="40" as="geometry" />
        </mxCell>
        <mxCell id="59evTQR5an8I3m5xiGdk-100" value="" style="shape=waypoint;sketch=0;fillStyle=solid;size=6;pointerEvents=1;points=[];fillColor=none;resizable=0;rotatable=0;perimeter=centerPerimeter;snapToPoint=1;shadow=0;glass=0;labelBackgroundColor=none;strokeColor=#000000;fontSize=21;fontColor=#000000;" vertex="1" parent="1">
          <mxGeometry x="360" y="340" width="40" height="40" as="geometry" />
        </mxCell>
        <mxCell id="59evTQR5an8I3m5xiGdk-101" value="" style="shape=waypoint;sketch=0;fillStyle=solid;size=6;pointerEvents=1;points=[];fillColor=none;resizable=0;rotatable=0;perimeter=centerPerimeter;snapToPoint=1;shadow=0;glass=0;labelBackgroundColor=none;strokeColor=#000000;fontSize=21;fontColor=#000000;" vertex="1" parent="1">
          <mxGeometry x="360" y="446" width="40" height="40" as="geometry" />
        </mxCell>
        <mxCell id="59evTQR5an8I3m5xiGdk-102" value="" style="shape=waypoint;sketch=0;fillStyle=solid;size=6;pointerEvents=1;points=[];fillColor=none;resizable=0;rotatable=0;perimeter=centerPerimeter;snapToPoint=1;shadow=0;glass=0;labelBackgroundColor=none;strokeColor=#000000;fontSize=21;fontColor=#000000;" vertex="1" parent="1">
          <mxGeometry x="360" y="557" width="40" height="40" as="geometry" />
        </mxCell>
        <mxCell id="59evTQR5an8I3m5xiGdk-103" value="" style="shape=waypoint;sketch=0;fillStyle=solid;size=6;pointerEvents=1;points=[];fillColor=none;resizable=0;rotatable=0;perimeter=centerPerimeter;snapToPoint=1;shadow=0;glass=0;labelBackgroundColor=none;strokeColor=#000000;fontSize=21;fontColor=#000000;" vertex="1" parent="1">
          <mxGeometry x="360" y="602" width="40" height="40" as="geometry" />
        </mxCell>
        <mxCell id="59evTQR5an8I3m5xiGdk-104" value="&lt;p style=&quot;line-height: 120%; font-size: 15px;&quot;&gt;&lt;font face=&quot;-apple-system, SF UI Text, Arial, PingFang SC, Hiragino Sans GB, Microsoft YaHei, WenQuanYi Micro Hei, sans-serif, SimHei, SimSun&quot;&gt;该区域无法被查询&lt;/font&gt;&lt;/p&gt;" style="text;whiteSpace=wrap;html=1;fontSize=15;fontColor=#000000;" vertex="1" parent="1">
          <mxGeometry x="387.5" y="284" width="155" height="60" as="geometry" />
        </mxCell>
        <mxCell id="59evTQR5an8I3m5xiGdk-105" value="&lt;p style=&quot;line-height: 120%; font-size: 15px;&quot;&gt;&lt;font face=&quot;-apple-system, SF UI Text, Arial, PingFang SC, Hiragino Sans GB, Microsoft YaHei, WenQuanYi Micro Hei, sans-serif, SimHei, SimSun&quot;&gt;A/V操作在区域中是致命的&lt;/font&gt;&lt;/p&gt;" style="text;whiteSpace=wrap;html=1;fontSize=15;fontColor=#000000;" vertex="1" parent="1">
          <mxGeometry x="387.5" y="306" width="182.5" height="56" as="geometry" />
        </mxCell>
        <mxCell id="59evTQR5an8I3m5xiGdk-106" value="&lt;p style=&quot;line-height: 120%; font-size: 15px;&quot;&gt;&lt;font face=&quot;-apple-system, SF UI Text, Arial, PingFang SC, Hiragino Sans GB, Microsoft YaHei, WenQuanYi Micro Hei, sans-serif, SimHei, SimSun&quot;&gt;FS段指向当前进程的阴影堆栈&lt;/font&gt;&lt;/p&gt;" style="text;whiteSpace=wrap;html=1;fontSize=15;fontColor=#000000;" vertex="1" parent="1">
          <mxGeometry x="388" y="330" width="162" height="52" as="geometry" />
        </mxCell>
        <mxCell id="59evTQR5an8I3m5xiGdk-108" value="&lt;p style=&quot;line-height: 120%; font-size: 15px;&quot;&gt;&lt;font face=&quot;-apple-system, SF UI Text, Arial, PingFang SC, Hiragino Sans GB, Microsoft YaHei, WenQuanYi Micro Hei, sans-serif, SimHei, SimSun&quot;&gt;如果进程启用了RFG:用RFG prolog/epilog修补NOP&lt;/font&gt;&lt;/p&gt;&lt;span style=&quot;color: rgba(0, 0, 0, 0); font-family: monospace; font-size: 0px;&quot;&gt;%3CmxGraphModel%3E%3Croot%3E%3CmxCell%20id%3D%220%22%2F%3E%3CmxCell%20id%3D%221%22%20parent%3D%220%22%2F%3E%3CmxCell%20id%3D%222%22%20value%3D%22%26lt%3Bp%20style%3D%26quot%3Bline-height%3A%20120%25%3B%20font-size%3A%2015px%3B%26quot%3B%26gt%3B%26lt%3Bfont%20face%3D%26quot%3B-apple-system%2C%20SF%20UI%20Text%2C%20Arial%2C%20PingFang%20SC%2C%20Hiragino%20Sans%20GB%2C%20Microsoft%20YaHei%2C%20WenQuanYi%20Micro%20Hei%2C%20sans-serif%2C%20SimHei%2C%20SimSun%26quot%3B%26gt%3BFS%E6%AE%B5%E6%8C%87%E5%90%91%E5%BD%93%E5%89%8D%E8%BF%9B%E7%A8%8B%E7%9A%84%E9%98%B4%E5%BD%B1%E5%A0%86%E6%A0%88%26lt%3B%2Ffont%26gt%3B%26lt%3B%2Fp%26gt%3B%22%20style%3D%22text%3BwhiteSpace%3Dwrap%3Bhtml%3D1%3BfontSize%3D15%3BfontColor%3D%23000000%3B%22%20vertex%3D%221%22%20parent%3D%221%22%3E%3CmxGeometry%20x%3D%22388%22%20y%3D%22330%22%20width%3D%22162%22%20height%3D%2252%22%20as%3D%22geometry%22%2F%3E%3C%2FmxCell%3E%3C%2Froot%3E%3C%2FmxGraphModel%3E&lt;/span&gt;" style="text;whiteSpace=wrap;html=1;fontSize=15;fontColor=#000000;" vertex="1" parent="1">
          <mxGeometry x="388.5" y="436" width="162" height="52" as="geometry" />
        </mxCell>
        <mxCell id="59evTQR5an8I3m5xiGdk-109" value="&lt;font face=&quot;-apple-system, SF UI Text, Arial, PingFang SC, Hiragino Sans GB, Microsoft YaHei, WenQuanYi Micro Hei, sans-serif, SimHei, SimSun&quot;&gt;Prolog:将返回地址送到影子栈中&lt;/font&gt;" style="text;whiteSpace=wrap;html=1;fontSize=15;fontColor=#000000;" vertex="1" parent="1">
          <mxGeometry x="387" y="559" width="162" height="52" as="geometry" />
        </mxCell>
        <mxCell id="59evTQR5an8I3m5xiGdk-110" value="&lt;p style=&quot;line-height: 120%; font-size: 15px;&quot;&gt;&lt;font face=&quot;-apple-system, SF UI Text, Arial, PingFang SC, Hiragino Sans GB, Microsoft YaHei, WenQuanYi Micro Hei, sans-serif, SimHei, SimSun&quot;&gt;Epilog:如果堆栈和影子栈中的返回地址不匹配则快速失败&lt;/font&gt;&lt;/p&gt;" style="text;whiteSpace=wrap;html=1;fontSize=15;fontColor=#000000;" vertex="1" parent="1">
          <mxGeometry x="387" y="590" width="162" height="52" as="geometry" />
        </mxCell>
        <mxCell id="59evTQR5an8I3m5xiGdk-111" value="&lt;p style=&quot;line-height: 120%; font-size: 18px;&quot;&gt;&lt;font face=&quot;-apple-system, SF UI Text, Arial, PingFang SC, Hiragino Sans GB, Microsoft YaHei, WenQuanYi Micro Hei, sans-serif, SimHei, SimSun&quot; style=&quot;font-size: 18px;&quot;&gt;父函数&lt;/font&gt;&lt;/p&gt;" style="text;whiteSpace=wrap;html=1;fontSize=18;fontColor=#000000;" vertex="1" parent="1">
          <mxGeometry x="660" y="211" width="70" height="49" as="geometry" />
        </mxCell>
        <mxCell id="59evTQR5an8I3m5xiGdk-112" value="&lt;p style=&quot;line-height: 120%; font-size: 18px;&quot;&gt;&lt;font face=&quot;-apple-system, SF UI Text, Arial, PingFang SC, Hiragino Sans GB, Microsoft YaHei, WenQuanYi Micro Hei, sans-serif, SimHei, SimSun&quot; style=&quot;font-size: 18px;&quot;&gt;子函数&lt;/font&gt;&lt;/p&gt;" style="text;whiteSpace=wrap;html=1;fontSize=18;fontColor=#000000;" vertex="1" parent="1">
          <mxGeometry x="820" y="211" width="70" height="49" as="geometry" />
        </mxCell>
        <mxCell id="59evTQR5an8I3m5xiGdk-113" value="&lt;p style=&quot;line-height: 120%; font-size: 18px;&quot;&gt;&lt;font face=&quot;-apple-system, SF UI Text, Arial, PingFang SC, Hiragino Sans GB, Microsoft YaHei, WenQuanYi Micro Hei, sans-serif, SimHei, SimSun&quot;&gt;[...] // Prior code&lt;/font&gt;&lt;/p&gt;" style="text;whiteSpace=wrap;html=1;fontSize=18;fontColor=#000000;align=center;" vertex="1" parent="1">
          <mxGeometry x="610" y="251" width="160" height="55" as="geometry" />
        </mxCell>
        <mxCell id="59evTQR5an8I3m5xiGdk-115" value="&lt;p style=&quot;line-height: 120%; font-size: 18px;&quot;&gt;&lt;font face=&quot;-apple-system, SF UI Text, Arial, PingFang SC, Hiragino Sans GB, Microsoft YaHei, WenQuanYi Micro Hei, sans-serif, SimHei, SimSun&quot;&gt;调用子函数&lt;/font&gt;&lt;/p&gt;" style="text;whiteSpace=wrap;html=1;fontSize=18;fontColor=#000000;align=center;" vertex="1" parent="1">
          <mxGeometry x="610" y="289" width="160" height="55" as="geometry" />
        </mxCell>
        <mxCell id="59evTQR5an8I3m5xiGdk-116" value="&lt;p style=&quot;line-height: 120%; font-size: 18px;&quot;&gt;&lt;font face=&quot;-apple-system, SF UI Text, Arial, PingFang SC, Hiragino Sans GB, Microsoft YaHei, WenQuanYi Micro Hei, sans-serif, SimHei, SimSun&quot;&gt;mov rax, [rsp]&lt;/font&gt;&lt;/p&gt;" style="text;whiteSpace=wrap;html=1;fontSize=18;fontColor=#000000;align=center;" vertex="1" parent="1">
          <mxGeometry x="775" y="332.5" width="160" height="55" as="geometry" />
        </mxCell>
        <mxCell id="59evTQR5an8I3m5xiGdk-117" value="&lt;p style=&quot;line-height: 120%; font-size: 18px;&quot;&gt;&lt;font face=&quot;-apple-system, SF UI Text, Arial, PingFang SC, Hiragino Sans GB, Microsoft YaHei, WenQuanYi Micro Hei, sans-serif, SimHei, SimSun&quot;&gt;mov fs: [rsp], rax&lt;/font&gt;&lt;/p&gt;" style="text;whiteSpace=wrap;html=1;fontSize=18;fontColor=#000000;align=center;" vertex="1" parent="1">
          <mxGeometry x="775" y="372.5" width="160" height="55" as="geometry" />
        </mxCell>
        <mxCell id="59evTQR5an8I3m5xiGdk-118" value="&lt;p style=&quot;line-height: 120%; font-size: 18px;&quot;&gt;&lt;font face=&quot;-apple-system, SF UI Text, Arial, PingFang SC, Hiragino Sans GB, Microsoft YaHei, WenQuanYi Micro Hei, sans-serif, SimHei, SimSun&quot;&gt;[...] // Child code&lt;/font&gt;&lt;/p&gt;" style="text;whiteSpace=wrap;html=1;fontSize=18;fontColor=#000000;align=center;" vertex="1" parent="1">
          <mxGeometry x="775" y="414" width="160" height="55" as="geometry" />
        </mxCell>
        <mxCell id="59evTQR5an8I3m5xiGdk-119" value="&lt;p style=&quot;line-height: 120%; font-size: 18px;&quot;&gt;&lt;font face=&quot;-apple-system, SF UI Text, Arial, PingFang SC, Hiragino Sans GB, Microsoft YaHei, WenQuanYi Micro Hei, sans-serif, SimHei, SimSun&quot;&gt;mov rcx, fs:[rsp]&lt;/font&gt;&lt;/p&gt;" style="text;whiteSpace=wrap;html=1;fontSize=18;fontColor=#000000;align=center;" vertex="1" parent="1">
          <mxGeometry x="775" y="454" width="160" height="55" as="geometry" />
        </mxCell>
        <mxCell id="59evTQR5an8I3m5xiGdk-120" value="&lt;p style=&quot;line-height: 120%; font-size: 18px;&quot;&gt;&lt;font face=&quot;-apple-system, SF UI Text, Arial, PingFang SC, Hiragino Sans GB, Microsoft YaHei, WenQuanYi Micro Hei, sans-serif, SimHei, SimSun&quot;&gt;cmp rcx, [rsp]&lt;/font&gt;&lt;/p&gt;" style="text;whiteSpace=wrap;html=1;fontSize=18;fontColor=#000000;align=center;" vertex="1" parent="1">
          <mxGeometry x="775" y="494" width="160" height="55" as="geometry" />
        </mxCell>
        <mxCell id="59evTQR5an8I3m5xiGdk-121" value="&lt;p style=&quot;line-height: 120%; font-size: 18px;&quot;&gt;&lt;font face=&quot;-apple-system, SF UI Text, Arial, PingFang SC, Hiragino Sans GB, Microsoft YaHei, WenQuanYi Micro Hei, sans-serif, SimHei, SimSun&quot;&gt;jne _fast_fail&lt;/font&gt;&lt;/p&gt;" style="text;whiteSpace=wrap;html=1;fontSize=18;fontColor=#000000;align=center;" vertex="1" parent="1">
          <mxGeometry x="775" y="534.5" width="160" height="55" as="geometry" />
        </mxCell>
        <mxCell id="59evTQR5an8I3m5xiGdk-122" value="&lt;p style=&quot;line-height: 120%; font-size: 18px;&quot;&gt;&lt;font face=&quot;-apple-system, SF UI Text, Arial, PingFang SC, Hiragino Sans GB, Microsoft YaHei, WenQuanYi Micro Hei, sans-serif, SimHei, SimSun&quot;&gt;ret&lt;/font&gt;&lt;/p&gt;" style="text;whiteSpace=wrap;html=1;fontSize=18;fontColor=#000000;align=center;" vertex="1" parent="1">
          <mxGeometry x="776" y="576" width="160" height="55" as="geometry" />
        </mxCell>
        <mxCell id="59evTQR5an8I3m5xiGdk-123" value="&lt;font color=&quot;#ffffff&quot; style=&quot;font-size: 17px;&quot;&gt;&lt;b&gt;如果攻击者在这些点上更改返回地址，RFG将被击败&lt;/b&gt;&lt;/font&gt;" style="shape=ext;double=1;rounded=0;whiteSpace=wrap;html=1;shadow=0;glass=0;labelBackgroundColor=none;sketch=0;strokeColor=#000000;strokeWidth=1;fontSize=36;fontColor=#000000;fillColor=#EA6B66;" vertex="1" parent="1">
          <mxGeometry x="556" y="690" width="414.5" height="60" as="geometry" />
        </mxCell>
        <mxCell id="59evTQR5an8I3m5xiGdk-124" value="" style="strokeWidth=2;html=1;shape=mxgraph.flowchart.annotation_2;align=left;labelPosition=right;pointerEvents=1;shadow=0;glass=0;labelBackgroundColor=none;sketch=0;strokeColor=#9933FF;fontSize=36;fontColor=#000000;fillColor=none;" vertex="1" parent="1">
          <mxGeometry x="755" y="362" width="30" height="50" as="geometry" />
        </mxCell>
        <mxCell id="59evTQR5an8I3m5xiGdk-125" value="" style="strokeWidth=2;html=1;shape=mxgraph.flowchart.annotation_2;align=left;labelPosition=right;pointerEvents=1;shadow=0;glass=0;labelBackgroundColor=none;sketch=0;strokeColor=#004C99;fontSize=36;fontColor=#000000;fillColor=none;" vertex="1" parent="1">
          <mxGeometry x="752" y="480" width="35" height="100" as="geometry" />
        </mxCell>
        <mxCell id="59evTQR5an8I3m5xiGdk-127" value="" style="endArrow=classic;html=1;rounded=0;fontSize=36;fontColor=#000000;exitX=1;exitY=0.25;exitDx=0;exitDy=0;entryX=0.397;entryY=0.049;entryDx=0;entryDy=0;entryPerimeter=0;fillColor=#f8cecc;strokeColor=#9933FF;" edge="1" parent="1" source="59evTQR5an8I3m5xiGdk-109" target="59evTQR5an8I3m5xiGdk-54">
          <mxGeometry width="50" height="50" relative="1" as="geometry">
            <mxPoint x="390" y="910" as="sourcePoint" />
            <mxPoint x="440" y="860" as="targetPoint" />
          </mxGeometry>
        </mxCell>
        <mxCell id="59evTQR5an8I3m5xiGdk-128" value="" style="endArrow=classic;html=1;rounded=0;fontSize=36;fontColor=#000000;exitX=1;exitY=0.75;exitDx=0;exitDy=0;entryX=0;entryY=0.5;entryDx=0;entryDy=0;entryPerimeter=0;strokeColor=#004C99;" edge="1" parent="1">
          <mxGeometry width="50" height="50" relative="1" as="geometry">
            <mxPoint x="544" y="629" as="sourcePoint" />
            <mxPoint x="747" y="530" as="targetPoint" />
          </mxGeometry>
        </mxCell>
        <mxCell id="59evTQR5an8I3m5xiGdk-130" value="" style="edgeStyle=segmentEdgeStyle;endArrow=classic;html=1;rounded=0;strokeColor=#FF3333;fontSize=17;fontColor=#FFFFFF;strokeWidth=3;" edge="1" parent="1">
          <mxGeometry width="50" height="50" relative="1" as="geometry">
            <mxPoint x="968" y="690" as="sourcePoint" />
            <mxPoint x="783" y="344" as="targetPoint" />
            <Array as="points">
              <mxPoint x="968" y="690" />
              <mxPoint x="968" y="344" />
            </Array>
          </mxGeometry>
        </mxCell>
        <mxCell id="59evTQR5an8I3m5xiGdk-131" value="" style="edgeStyle=segmentEdgeStyle;endArrow=classic;html=1;rounded=0;strokeColor=#FF3333;fontSize=17;fontColor=#FFFFFF;strokeWidth=3;" edge="1" parent="1">
          <mxGeometry width="50" height="50" relative="1" as="geometry">
            <mxPoint x="951" y="690" as="sourcePoint" />
            <mxPoint x="786" y="510" as="targetPoint" />
            <Array as="points">
              <mxPoint x="951" y="510" />
            </Array>
          </mxGeometry>
        </mxCell>
        <mxCell id="59evTQR5an8I3m5xiGdk-132" value="&lt;font size=&quot;1&quot; color=&quot;#ffffff&quot;&gt;&lt;b style=&quot;font-size: 27px;&quot;&gt;RFG依赖于一个秘密：影子栈的虚拟地址&lt;/b&gt;&lt;/font&gt;" style="shape=ext;double=1;rounded=0;whiteSpace=wrap;html=1;shadow=0;glass=0;labelBackgroundColor=none;sketch=0;strokeColor=#000000;strokeWidth=1;fontSize=36;fontColor=#000000;fillColor=#3333FF;" vertex="1" parent="1">
          <mxGeometry x="-10" y="760" width="980" height="60" as="geometry" />
        </mxCell>
        <mxCell id="59evTQR5an8I3m5xiGdk-133" value="&lt;p style=&quot;line-height: 30%; font-size: 17px;&quot;&gt;&lt;font style=&quot;font-size: 17px;&quot; face=&quot;-apple-system, SF UI Text, Arial, PingFang SC, Hiragino Sans GB, Microsoft YaHei, WenQuanYi Micro Hei, sans-serif, SimHei, SimSun&quot;&gt;0xABCD: [...]&lt;/font&gt;&lt;/p&gt;&lt;p style=&quot;line-height: 30%; font-size: 17px;&quot;&gt;&lt;font style=&quot;font-size: 17px;&quot; face=&quot;-apple-system, SF UI Text, Arial, PingFang SC, Hiragino Sans GB, Microsoft YaHei, WenQuanYi Micro Hei, sans-serif, SimHei, SimSun&quot;&gt;//父函数的剩余部分&lt;/font&gt;&lt;/p&gt;" style="text;whiteSpace=wrap;html=1;fontSize=18;fontColor=#000000;align=left;" vertex="1" parent="1">
          <mxGeometry x="610" y="615" width="170" height="95" as="geometry" />
        </mxCell>
      </root>
    </mxGraphModel>
  </diagram>
</mxfile>
